<svg width="25" height="25" viewBox="0 0 60 60" fill="none" xmlns="http://www.w3.org/2000/svg">
<path d="M49.8981 15.2448C48.4322 15.2448 47.2442 16.4326 47.2442 17.8966V19.6735L39.9487 21.086C37.2954 21.086 33.9791 19.4266 30.0004 19.4266C26.0202 19.4266 22.7045 21.086 20.0511 21.086L12.7552 19.6735V17.8966C12.7552 16.4326 11.5678 15.2448 10.1024 15.2448C8.63693 15.2448 7.44958 16.4326 7.44958 17.8967V26.1885C7.44958 27.6524 8.63693 28.8405 10.1024 28.8405C11.5678 28.8405 12.7552 27.6526 12.7552 26.1885V24.6255C14.8748 25.0687 17.7964 25.6754 19.7197 26.0603C22.7628 26.6689 23.8618 30.8955 28.6313 31.5905V35.9824C27.8658 36.0465 27.2626 36.6813 27.2626 37.4629C27.2626 37.4745 27.266 37.4853 27.266 37.4969C24.5665 38.5817 22.6588 41.219 22.6588 44.3063C22.6588 48.3608 25.9454 51.6475 30 51.6475C34.0545 51.6475 37.3412 48.3609 37.3412 44.3063C37.3412 41.2189 35.4335 38.5817 32.7341 37.4969C32.7341 37.4852 32.7375 37.4745 32.7375 37.4629C32.7375 36.6813 32.1342 36.0466 31.3687 35.9824V31.5905C36.1378 30.8954 37.2377 26.6689 40.2803 26.0603C42.2029 25.6754 45.1251 25.0688 47.2442 24.6255V26.1885C47.2442 27.6524 48.4322 28.8405 49.8981 28.8405C51.363 28.8405 52.5499 27.6526 52.5499 26.1885V17.8967C52.5499 16.4326 51.363 15.2448 49.8981 15.2448ZM34.8526 44.3062C34.8526 46.9863 32.6801 49.1588 30 49.1588C27.3199 49.1588 25.1474 46.9862 25.1474 44.3062C25.1474 41.6261 27.32 39.4536 30 39.4536C32.6801 39.4536 34.8526 41.6261 34.8526 44.3062Z" fill="white"/>
<path d="M20.2048 10.6632H0V14.1268H20.2048V10.6632Z" fill="white"/>
<path d="M60 10.6632H39.7942V14.1268H60V10.6632Z" fill="white"/>
<path d="M10.1024 8.35266C9.26545 8.35266 8.5874 9.03118 8.5874 9.86907H11.6179C11.6179 9.03118 10.9388 8.35266 10.1024 8.35266Z" fill="white"/>
<path d="M49.8981 8.35266C49.0602 8.35266 48.3817 9.03118 48.3817 9.86907H51.4127C51.4125 9.03118 50.7341 8.35266 49.8981 8.35266Z" fill="white"/>
<path d="M31.3541 41.5172C30.9429 41.318 30.4875 41.1956 30 41.1956C28.2818 41.1956 26.8894 42.5886 26.8894 44.3062C26.8894 46.0238 28.2819 47.4168 30 47.4168C31.7181 47.4168 33.1107 46.0238 33.1107 44.3062C33.1107 43.8862 33.0251 43.4858 32.8739 43.1202C32.6975 43.5926 32.2508 43.9328 31.7167 43.9328C31.0295 43.9328 30.4724 43.3758 30.4724 42.6885C30.4725 42.1307 30.8472 41.6747 31.3541 41.5172Z" fill="white"/>
</svg>
