<svg width="25" height="25" viewBox="0 0 60 60" fill="none" xmlns="http://www.w3.org/2000/svg">
<g clip-path="url(#clip0_648_61)">
<path d="M44.1825 14.015C39.4545 11.7911 34.7287 9.56274 30.005 7.32996L0.344971 21.31L5.41997 23.76L4.99997 23.8275V50H7.49997V25.935L9.29997 25.625L9.99997 25.9625V39.1825C9.99997 41.4675 23.015 48.015 25.6225 49.305C26.9781 49.9703 28.4701 50.3109 29.9801 50.2996C31.4902 50.2883 32.9769 49.9255 34.3225 49.24C50 41.215 50 39.7375 50 39.1825V25.9625L59.635 21.32C59.635 21.32 50.135 16.8175 44.1825 14.015ZM47.5 38.76C42.9099 41.8152 38.1284 44.5725 33.185 47.015C32.1869 47.5243 31.0839 47.794 29.9634 47.8027C28.8429 47.8114 27.7358 47.5588 26.73 47.065C21.7687 44.7045 17.0094 41.9411 12.5 38.8025V27.165L30 35.5975L47.5 27.165V38.76ZM30 32.8275L13.54 24.895L29.7125 22.1075L29.2875 19.64L9.66247 23.025L6.15497 21.335L29.9975 10.0975C32.06 11.08 51.305 20.1325 53.8525 21.3325L30 32.8275Z" fill="white"/>
</g>
<defs>
<clipPath id="clip0_648_61">
<rect width="60" height="60" fill="white"/>
</clipPath>
</defs>
</svg>
