<svg width="25" height="25" viewBox="0 0 60 60" fill="none" xmlns="http://www.w3.org/2000/svg">
<path d="M17.5 22.5H42.5M17.5 32.5H42.5M52.5 50L44.1892 45.8445C43.5592 45.5295 43.2442 45.372 42.914 45.261C42.621 45.1625 42.3193 45.0913 42.013 45.0483C41.668 45 41.3158 45 40.6115 45H15.5C12.6997 45 11.2996 45 10.2301 44.455C9.28923 43.9757 8.52432 43.2108 8.04497 42.27C7.5 41.2005 7.5 39.8003 7.5 37V18C7.5 15.1997 7.5 13.7996 8.04497 12.7301C8.52432 11.7892 9.28923 11.0243 10.2301 10.545C11.2996 10 12.6997 10 15.5 10H44.5C47.3002 10 48.7005 10 49.77 10.545C50.7108 11.0243 51.4757 11.7892 51.955 12.7301C52.5 13.7996 52.5 15.1997 52.5 18V50Z" stroke="white" stroke-width="3" stroke-linecap="round" stroke-linejoin="round"/>
</svg>
