<?xml version="1.0" standalone="no"?>
<!DOCTYPE svg PUBLIC "-//W3C//DTD SVG 20010904//EN"
 "http://www.w3.org/TR/2001/REC-SVG-20010904/DTD/svg10.dtd">
<svg version="1.0" xmlns="http://www.w3.org/2000/svg"
 width="800.000000pt" height="800.000000pt" viewBox="0 0 800.000000 800.000000"
 preserveAspectRatio="xMidYMid meet">
<metadata>
Created by potrace 1.14, written by Peter Selinger 2001-2017
</metadata>
<g transform="translate(0.000000,800.000000) scale(0.100000,-0.100000)"
fill="#000000" stroke="none">
<path d="M3750 7990 c-609 -42 -1178 -209 -1705 -503 -137 -76 -417 -265 -538
-362 -459 -370 -810 -802 -1073 -1320 -532 -1050 -573 -2291 -113 -3368 108
-252 192 -407 354 -652 384 -580 895 -1034 1520 -1351 1050 -532 2291 -573
3368 -113 252 108 407 192 652 354 580 384 1034 895 1351 1520 532 1050 573
2291 113 3368 -108 252 -192 407 -354 652 -605 913 -1572 1543 -2647 1724
-279 47 -669 69 -928 51z m-946 -1659 c12 -13 22 -60 34 -157 12 -95 20 -131
25 -113 4 14 16 38 28 52 20 26 24 27 118 27 110 0 135 -11 147 -63 6 -27 8
-29 14 -12 4 11 13 71 20 134 18 158 9 152 213 149 162 -3 162 -3 173 -28 10
-21 1 -103 -53 -465 -70 -477 -74 -493 -129 -487 -20 2 -25 0 -16 -6 17 -12
-41 -36 -123 -51 -61 -11 -100 -14 -77 -4 6 2 9 10 5 16 -4 7 0 8 11 4 10 -4
15 -3 11 3 -3 6 4 11 17 11 13 1 -1 5 -31 9 -29 5 -61 15 -69 24 -9 9 -37 68
-63 132 l-46 117 -49 -122 c-59 -151 -60 -151 -214 -151 -125 0 -161 12 -178
57 -6 15 -39 225 -73 465 -60 425 -62 439 -44 458 17 18 31 20 175 20 141 0
159 -2 174 -19z m1666 -8 c20 -25 21 -37 18 -140 -4 -156 10 -147 -238 -151
-166 -3 -200 -6 -200 -18 0 -12 30 -14 183 -14 142 0 188 -3 203 -14 16 -12
19 -29 22 -123 3 -98 2 -111 -18 -136 l-21 -27 -190 0 c-160 0 -189 -2 -189
-15 0 -12 33 -15 211 -17 l212 -3 20 -27 c17 -23 18 -29 7 -43 -11 -14 -11
-18 -1 -25 10 -5 12 -31 10 -93 -6 -132 27 -121 -402 -125 -219 -2 -358 1
-352 6 6 5 38 19 73 31 57 19 83 21 342 21 l280 0 0 105 0 105 -225 0 -225 0
0 70 0 70 205 0 205 0 0 95 0 95 -205 0 -205 0 0 70 0 70 220 0 220 0 0 105 0
105 -355 0 -355 0 0 -445 0 -445 -24 0 -24 0 -7 363 c-4 199 -6 401 -4 448 6
140 -28 129 415 129 l373 0 21 -27z m861 -1 c112 -45 171 -122 184 -239 8 -71
-3 -113 -44 -169 l-29 -38 34 -40 c35 -40 64 -117 64 -166 0 -46 -30 -144 -57
-182 -32 -47 -101 -91 -178 -115 -52 -16 -98 -18 -362 -18 -277 0 -304 2 -320
18 -17 16 -18 51 -21 471 -3 450 -2 453 19 480 l21 27 317 -3 c300 -3 319 -5
372 -26z m373 -782 c7 -7 1 -10 -18 -10 -26 0 -21 -7 73 -107 99 -105 136
-164 69 -108 -81 68 -238 228 -232 237 8 12 93 3 108 -12z m-2604 -271 c0 -18
-5 -20 -34 -15 -19 3 -38 1 -41 -4 -3 -6 2 -10 12 -10 15 0 -81 -53 -97 -53
-3 0 -26 -13 -51 -28 -53 -31 -127 -47 -374 -84 -93 -14 -231 -37 -305 -51
-165 -32 -185 -33 -185 -15 0 11 26 20 90 33 50 10 180 43 290 73 110 31 277
76 370 101 94 25 190 51 215 59 25 7 60 13 78 14 26 1 32 -3 32 -20z m2815 -9
c3 -6 -1 -7 -9 -4 -18 7 -21 14 -7 14 6 0 13 -4 16 -10z m173 -32 c9 -9 9 -15
0 -27 -10 -13 -10 -14 2 -3 21 18 36 15 55 -14 20 -31 12 -44 -13 -21 -23 21
-39 22 -22 2 19 -23 -12 -30 -65 -15 -32 9 -49 20 -59 41 -8 16 -11 28 -8 27
4 -1 14 2 22 5 16 6 47 14 66 16 5 0 15 -4 22 -11z m-1427 -28 c351 -20 499
-46 499 -90 0 -17 -47 -60 -204 -188 -124 -101 -146 -112 -386 -181 -135 -38
-180 -46 -180 -32 0 6 35 57 78 113 l78 103 89 15 c50 9 96 19 103 23 6 5 12
23 12 41 0 17 5 37 12 44 9 9 7 13 -6 18 -9 3 -22 17 -29 30 l-13 24 -66 -53
c-153 -122 -418 -382 -418 -411 1 -11 9 -46 20 -76 21 -61 28 -247 11 -293
-16 -42 -461 -309 -594 -357 -96 -35 -102 -43 -87 -129 6 -39 15 -73 19 -75 4
-3 61 20 127 51 127 59 384 173 390 173 2 0 4 -4 4 -10 0 -5 -4 -10 -9 -10 -5
0 -62 -25 -127 -56 -221 -104 -259 -122 -404 -187 -80 -35 -162 -72 -182 -82
l-36 -18 19 -36 c21 -40 24 -57 9 -66 -14 -9 -70 20 -114 58 l-39 34 49 18
c27 10 53 22 58 26 5 4 -2 29 -17 56 -25 48 -25 49 -6 72 24 29 25 102 3 137
-23 34 -65 54 -116 54 -24 0 -64 7 -89 14 -25 8 -100 22 -165 31 -65 9 -149
20 -186 26 -37 5 -130 12 -205 15 -76 3 -145 8 -153 11 -8 2 -110 4 -227 3
-429 -2 -485 28 -73 40 135 4 257 11 273 16 15 5 37 25 50 45 12 20 54 63 92
96 82 70 493 348 610 412 44 24 98 56 120 71 22 14 135 78 252 141 l212 114
-99 5 c-147 7 -133 20 24 20 l137 0 202 91 c111 51 220 98 242 105 49 15 201
17 436 4z m-1352 -154 c13 -42 22 -79 19 -82 -3 -3 -20 -7 -38 -9 -18 -3 -35
-7 -39 -11 -3 -4 16 -4 42 -1 31 4 46 3 42 -3 -3 -6 -19 -10 -35 -10 -21 0
-28 -4 -24 -14 3 -8 -2 -17 -13 -20 -10 -3 7 -3 37 -1 66 6 48 -9 -22 -19 -51
-8 -80 0 -57 15 11 7 11 9 1 9 -7 0 -10 5 -7 10 3 6 1 10 -5 10 -7 0 -10 7 -6
15 3 8 1 15 -3 15 -5 0 -14 28 -20 63 -6 34 -14 72 -17 84 -5 19 -1 22 28 25
88 9 90 8 117 -76z m2977 35 c67 -49 162 -163 287 -345 35 -51 39 -55 63 -46
14 6 36 10 49 10 26 0 46 -21 27 -28 -7 -2 -18 -9 -25 -16 -7 -7 -18 -11 -26
-8 -8 3 -11 0 -7 -7 5 -7 -7 -11 -39 -11 -34 0 -51 5 -63 19 -25 29 -181 115
-275 151 -174 68 -209 83 -237 110 -17 15 -52 36 -80 46 -27 10 -50 24 -50 31
0 16 -1 17 45 -7 54 -27 60 -26 71 18 6 21 15 36 22 34 14 -2 135 15 166 24
15 5 16 8 5 15 -10 6 -10 9 -2 9 7 0 10 7 7 15 -10 24 19 18 62 -14z m-359
-43 c-3 -8 -6 -5 -6 6 -1 11 2 17 5 13 3 -3 4 -12 1 -19z m-2594 -125 c-7 -2
-19 -2 -25 0 -7 3 -2 5 12 5 14 0 19 -2 13 -5z m2780 -82 c61 -28 67 -33 67
-61 0 -22 -5 -30 -17 -31 -15 0 -15 -2 2 -9 19 -7 19 -8 2 -15 -23 -10 -169 3
-182 16 -6 6 9 7 40 3 37 -4 46 -3 35 5 -8 6 -27 11 -42 11 -32 0 -35 16 -17
101 11 51 12 52 28 31 9 -11 46 -35 84 -51z m-100 -128 c-7 -2 -19 -2 -25 0
-7 3 -2 5 12 5 14 0 19 -2 13 -5z m142 -12 l-30 -7 30 -8 30 -9 -30 -8 c-32
-10 -162 7 -179 23 -13 11 1 10 41 -1 18 -5 42 -7 55 -3 l23 6 -25 7 c-16 4 1
7 45 7 48 0 60 -3 40 -7z m-4608 -38 c15 -20 54 -61 86 -92 62 -59 94 -108 80
-121 -4 -5 -26 -13 -48 -19 -34 -9 -42 -8 -52 5 -11 15 -14 14 -39 -5 -28 -22
-54 -28 -54 -12 0 5 -17 4 -40 -1 -22 -6 -40 -14 -40 -19 0 -12 -51 -11 -70 1
-13 9 -13 11 -1 19 12 8 12 14 2 39 -10 24 -10 42 0 89 6 32 11 75 10 95 -1
31 3 38 27 46 15 6 46 11 69 11 37 1 45 -3 70 -36z m3545 -115 c-7 -7 -12 -8
-12 -2 0 6 3 14 7 17 3 4 9 5 12 2 2 -3 -1 -11 -7 -17z m732 -48 c50 -19 24
-55 -32 -44 -19 4 -83 -17 -222 -71 -297 -117 -424 -165 -438 -165 -7 0 -32
-9 -54 -20 -23 -11 -49 -20 -58 -20 -9 0 -20 -4 -26 -9 -19 -18 -138 -51 -148
-41 -6 6 -3 11 10 15 31 10 207 97 235 117 28 19 144 62 409 153 85 29 175 62
200 73 51 23 87 27 124 12z m-4220 -112 c10 -17 15 -66 18 -174 l4 -151 -36
-11 -35 -11 43 5 c32 3 42 1 42 -10 0 -8 -8 -20 -17 -25 -16 -9 -15 -10 6 -11
20 0 21 -2 11 -15 -7 -8 -8 -15 -3 -15 6 0 10 -10 9 -22 -1 -17 -11 -25 -41
-34 -49 -15 -172 -18 -180 -4 -4 6 18 10 57 11 35 1 77 5 93 9 18 5 -8 6 -65
4 -93 -3 -94 -3 -27 6 92 12 101 24 11 15 -49 -5 -74 -4 -78 4 -5 7 10 11 46
12 29 1 64 5 78 9 16 5 -2 8 -54 7 l-79 -2 -13 38 c-15 44 -10 46 28 10 15
-15 28 -21 28 -15 0 20 -31 64 -73 104 -35 33 -38 40 -31 70 4 18 7 50 6 70
-3 47 9 53 50 28 18 -11 39 -23 47 -27 17 -8 64 45 91 105 21 47 42 53 64 20z
m-301 -203 c-3 -9 -8 -14 -10 -11 -3 3 -2 9 2 15 9 16 15 13 8 -4z m3471 -24
c7 -10 8 -9 -123 -57 -51 -19 -108 -34 -127 -34 -18 0 -36 -4 -39 -10 -3 -5
-21 -10 -40 -10 -18 0 -62 -9 -96 -20 -35 -10 -65 -17 -68 -15 -5 6 6 9 98 35
50 13 85 30 105 49 45 42 66 50 146 55 40 3 75 7 78 10 9 9 60 7 66 -3z
m-3413 -208 c-28 -22 -30 -26 -16 -46 8 -12 21 -56 30 -97 16 -75 16 -75 -7
-93 l-23 -19 -22 89 c-30 119 -30 126 17 166 22 19 41 40 41 48 1 8 4 5 6 -5
3 -13 -5 -27 -26 -43z m2876 41 c-3 -3 -12 -4 -19 -1 -8 3 -5 6 6 6 11 1 17
-2 13 -5z m511 -298 c3 -104 -4 -125 -42 -127 -20 0 -20 -1 -1 -9 22 -9 12
-15 -35 -23 -20 -3 -18 -5 8 -6 22 -1 31 -5 26 -12 -5 -8 -36 -10 -103 -6 -57
3 -88 2 -76 -3 11 -5 55 -9 98 -9 46 -1 77 -5 77 -11 0 -20 -33 -23 -116 -12
-83 11 -144 33 -144 53 0 6 6 6 19 -1 11 -5 26 -10 33 -10 7 0 -2 8 -20 17
-46 23 -32 28 24 9 26 -9 68 -16 93 -15 41 1 38 2 -30 14 -78 13 -119 29 -119
45 0 6 10 6 26 0 37 -14 43 -12 13 5 -20 11 -28 24 -32 57 -3 23 -3 46 -1 50
3 5 29 26 59 48 53 39 96 49 210 46 l30 -1 3 -99z m119 -8 c-2 -13 -4 -5 -4
17 -1 22 1 32 4 23 2 -10 2 -28 0 -40z m-3053 27 c18 -14 15 -15 -36 -15 -53
0 -76 9 -61 24 12 12 78 5 97 -9z m354 5 c28 0 52 -4 52 -10 0 -12 -207 -14
-214 -1 -11 17 10 23 59 17 28 -3 74 -6 103 -6z m822 -157 c11 -4 8 -8 -9 -12
-14 -4 -27 -13 -29 -21 -4 -13 -3 -13 11 -2 38 32 98 -18 82 -68 -8 -27 -50
-26 -68 1 -10 13 -17 17 -22 9 -5 -8 -11 -8 -21 1 -11 9 -14 8 -14 -5 0 -27
-18 -18 -25 14 -7 31 0 66 17 87 10 12 39 10 78 -4z m674 -38 c28 -77 63 -95
115 -59 15 11 34 14 56 11 20 -3 35 -1 37 5 5 13 187 -27 215 -47 36 -27 1
-27 -103 -1 l-107 27 -106 -70 c-112 -74 -169 -101 -180 -84 -3 6 -19 17 -36
26 -35 17 -83 75 -114 134 l-21 42 37 10 c21 6 63 17 93 25 78 21 101 17 114
-19z m1320 9 c8 -20 8 -1238 0 -1258 -5 -14 -27 -16 -138 -16 -91 0 -137 4
-148 13 -9 6 -65 86 -124 177 l-109 165 -3 -164 c-1 -103 -7 -170 -14 -178 -8
-10 -44 -13 -157 -11 l-146 3 -7 240 c-9 285 -1 674 14 692 15 18 247 18 271
0 10 -6 64 -89 122 -182 57 -94 108 -177 114 -185 7 -10 10 43 10 171 1 201 3
209 55 209 23 0 27 3 18 12 -8 8 -12 46 -12 103 0 100 14 135 54 135 12 0 54
20 92 45 74 48 98 54 108 29z m-1295 -329 c132 -31 239 -119 280 -230 21 -56
22 -73 19 -265 l-3 -205 -36 -65 c-61 -111 -157 -168 -320 -190 -254 -35 -475
68 -524 244 -16 61 -26 327 -15 409 22 150 130 261 296 301 78 19 224 19 303
1z m2944 0 c73 -19 141 -54 194 -99 50 -43 98 -135 89 -169 -5 -23 -9 -24
-153 -31 -144 -7 -148 -6 -196 19 -52 27 -105 33 -125 13 -34 -34 2 -53 153
-79 144 -24 170 -32 235 -71 37 -22 64 -49 85 -82 27 -45 30 -57 30 -135 0
-99 -15 -139 -75 -199 -49 -49 -120 -87 -201 -109 -79 -20 -262 -23 -339 -4
-137 33 -249 127 -271 226 -19 85 -16 87 165 83 142 -3 153 -4 183 -27 53 -40
193 -32 193 10 0 17 -65 39 -177 58 -243 42 -343 129 -343 298 0 58 5 84 24
121 44 86 126 146 239 177 69 18 219 19 290 0z m-4992 -9 c138 -30 241 -101
291 -204 l33 -67 0 -195 c0 -189 -1 -197 -26 -250 -35 -76 -77 -121 -147 -158
-104 -56 -149 -62 -434 -62 -244 0 -258 1 -268 19 -6 13 -10 175 -10 457 0
393 2 439 17 456 15 16 36 18 247 18 160 0 251 -5 297 -14z m1086 -9 c106 -35
199 -122 225 -210 6 -23 12 -73 12 -112 0 -87 -28 -150 -95 -215 l-46 -45 84
-154 c46 -84 83 -161 81 -170 -3 -14 -25 -16 -158 -19 -85 -1 -165 0 -176 3
-16 3 -37 39 -85 145 -55 119 -67 140 -86 140 -13 0 -24 -1 -24 -2 -1 -2 -5
-66 -8 -143 l-6 -140 -154 -3 c-104 -2 -158 1 -167 9 -20 16 -21 908 -1 928
20 20 535 10 604 -12z m3191 11 c8 -8 12 -50 12 -123 0 -73 -4 -115 -12 -123
-9 -9 -72 -12 -220 -12 l-208 0 0 -40 0 -40 193 0 c137 0 196 -3 205 -12 14
-14 17 -224 4 -232 -4 -2 -97 -8 -205 -12 l-197 -7 0 -33 0 -34 208 0 c152 0
213 -3 225 -13 15 -11 17 -28 15 -132 l-3 -120 -374 -3 c-267 -2 -378 1 -387
9 -12 9 -14 93 -14 460 0 394 2 449 16 463 13 14 61 16 373 16 264 0 360 -3
369 -12z"/>
<path d="M2500 6277 c0 -45 121 -852 129 -860 4 -4 61 -6 125 -5 l118 3 67
167 c36 92 69 169 71 172 3 2 36 -74 74 -170 l69 -174 123 0 c108 0 123 2 128
18 5 16 126 846 126 864 0 4 -60 8 -134 8 l-134 0 -6 -27 c-5 -25 -46 -352
-46 -368 0 -3 -12 -5 -26 -3 -24 3 -30 13 -58 93 l-31 90 -82 3 -81 3 -32 -96
c-30 -91 -33 -96 -59 -93 l-26 3 -22 185 c-13 102 -25 191 -28 198 -3 9 -40
12 -135 12 -129 0 -130 0 -130 -23z"/>
<path d="M4660 5855 l0 -446 308 3 c293 3 310 4 364 26 104 42 155 130 146
252 -5 72 -41 124 -106 155 -47 22 -52 31 -22 40 30 9 79 53 95 86 21 39 19
135 -4 184 -26 56 -68 92 -137 117 -54 20 -82 22 -351 26 l-293 4 0 -447z
m475 240 c31 -30 34 -92 6 -126 -17 -21 -29 -24 -110 -27 l-91 -4 0 91 0 91
85 0 c78 0 88 -2 110 -25z m20 -350 c32 -31 34 -91 4 -129 -20 -25 -24 -26
-120 -26 l-99 0 0 90 0 90 95 0 c88 0 98 -2 120 -25z"/>
<path d="M5000 6030 l0 -31 53 3 c48 3 52 5 52 28 0 23 -4 25 -52 28 l-53 3 0
-31z"/>
<path d="M5000 5680 l0 -40 60 0 c55 0 60 2 66 25 10 39 -11 55 -72 55 l-54 0
0 -40z"/>
<path d="M4740 5146 c0 -9 8 -16 20 -16 12 0 55 -7 96 -16 42 -8 79 -13 82 -9
13 12 -18 26 -79 35 -35 6 -76 13 -91 16 -21 4 -28 2 -28 -10z"/>
<path d="M1375 4490 c-3 -5 -1 -10 4 -10 6 0 11 5 11 10 0 6 -2 10 -4 10 -3 0
-8 -4 -11 -10z"/>
<path d="M1586 4351 c-4 -7 -5 -15 -2 -18 9 -9 19 4 14 18 -4 11 -6 11 -12 0z"/>
<path d="M1578 3953 c7 -3 16 -2 19 1 4 3 -2 6 -13 5 -11 0 -14 -3 -6 -6z"/>
<path d="M4525 3560 c11 -5 38 -8 60 -8 l40 0 -40 9 c-22 4 -49 8 -60 8 l-20
0 20 -9z"/>
<path d="M2999 3496 c12 -14 8 -20 -11 -17 -14 2 4 -27 19 -34 22 -8 43 13 25
24 -7 4 -12 14 -10 21 2 8 -6 16 -17 18 -17 4 -18 2 -6 -12z"/>
<path d="M3487 2929 c-36 -21 -47 -71 -47 -209 0 -157 11 -192 64 -210 43 -14
100 1 116 30 6 10 10 93 10 185 0 163 0 166 -25 190 -26 27 -84 34 -118 14z"/>
<path d="M1430 2726 l0 -206 64 0 c59 0 66 2 90 31 25 30 26 34 26 174 0 137
-1 145 -24 171 -20 24 -32 28 -90 32 l-66 4 0 -206z"/>
<path d="M2460 2875 l0 -65 60 0 c52 0 61 3 76 25 10 15 14 34 10 49 -10 42
-33 56 -92 56 l-54 0 0 -65z"/>
</g>
</svg>
