<svg width="25" height="25" viewBox="0 0 17 17" fill="currentColor" xmlns="http://www.w3.org/2000/svg">
<g opacity="0.5">
<path d="M8.62132 3.76423C7.91973 3.73725 7.25862 3.98011 6.74592 4.46582C6.23322 4.95154 5.96338 5.59916 5.96338 6.30074H7.00227C7.00227 5.88249 7.16417 5.50471 7.47449 5.20788C7.77132 4.92455 8.16258 4.77614 8.58084 4.78963C9.34989 4.83011 9.97052 5.45074 10.011 6.21979C10.0515 7.02931 9.24195 7.77138 8.89116 8.05471L7.85227 8.97217V10.0111H8.89116V9.44439L9.55227 8.86423C10.1324 8.39201 11.1039 7.40709 11.0499 6.17931C10.9824 4.88408 9.91655 3.8182 8.62132 3.76423Z"/>
<path d="M8.89118 11.104H7.85229V12.1834H8.89118V11.104Z"/>
<path d="M0 12C0 14.7614 2.23858 17 5 17H12C14.7614 17 17 14.7614 17 12V5C17 2.23858 14.7614 0 12 0H5C2.23858 0 0 2.23858 0 5V12ZM1.07937 6.07936C1.07937 3.31794 3.31794 1.07937 6.07936 1.07937H10.9206C13.6821 1.07937 15.9206 3.31794 15.9206 6.07936V10.9206C15.9206 13.6821 13.6821 15.9206 10.9206 15.9206H6.07936C3.31794 15.9206 1.07937 13.6821 1.07937 10.9206V6.07936Z"/>
</g>
</svg>
