<svg width="25" height="25" viewBox="0 0 25 25" fill="none" xmlns="http://www.w3.org/2000/svg">
<g opacity="0.5">
<path d="M12.1872 5.32123C11.1954 5.28308 10.2609 5.62638 9.53613 6.31299C8.81138 6.9996 8.42993 7.91507 8.42993 8.90684H9.89851C9.89851 8.3156 10.1274 7.78157 10.566 7.36197C10.9856 6.96145 11.5387 6.75166 12.13 6.77073C13.2171 6.82795 14.0944 7.70528 14.1517 8.79241C14.2089 9.93675 13.0645 10.9857 12.5686 11.3863L11.1001 12.6832V14.1518H12.5686V13.3507L13.5032 12.5306C14.3233 11.8631 15.6965 10.4708 15.6202 8.73519C15.5249 6.90424 14.0182 5.39751 12.1872 5.32123Z" fill="#D9D9D9"/>
<path d="M12.5687 15.6968H11.1001V17.2226H12.5687V15.6968Z" fill="#D9D9D9"/>
<path d="M0 19.0312C0 21.7927 2.23858 24.0312 5 24.0312H19.0312C21.7927 24.0312 24.0312 21.7927 24.0312 19.0312V5C24.0312 2.23858 21.7927 0 19.0312 0H5C2.23858 0 0 2.23858 0 5V19.0312ZM1.52579 6.52579C1.52579 3.76437 3.76437 1.52579 6.52579 1.52579H17.5055C20.2669 1.52579 22.5055 3.76437 22.5055 6.52579V17.5055C22.5055 20.2669 20.2669 22.5055 17.5055 22.5055H6.52579C3.76437 22.5055 1.52579 20.2669 1.52579 17.5055V6.52579Z" fill="#D9D9D9"/>
</g>
</svg>
